<?xml version="1.0" encoding="UTF-8" standalone="no"?>
<!DOCTYPE svg PUBLIC "-//W3C//DTD SVG 1.1//EN"
 "http://www.w3.org/Graphics/SVG/1.1/DTD/svg11.dtd">
<!-- Generated by graphviz version 10.0.1 (20240210.2158)
 -->
<!-- Title: spack_workflow Pages: 1 -->
<svg width="592pt" height="1460pt"
 viewBox="0.00 0.00 591.62 1459.50" xmlns="http://www.w3.org/2000/svg" xmlns:xlink="http://www.w3.org/1999/xlink">
<g id="graph0" class="graph" transform="scale(1 1) rotate(0) translate(4 1455.5)">
<title>spack_workflow</title>
<polygon fill="white" stroke="none" points="-4,4 -4,-1455.5 587.62,-1455.5 587.62,4 -4,4"/>
<!-- request_for_products -->
<g id="n_000" class="node">
<title>request_for_products</title>
<g id="a_n_000"><a xlink:href="./remaining_work.html#request_for_products" xlink:title="n_000\nRequest for products\n">
<polygon fill="lightgray" stroke="black" points="279.88,-1451.5 150.62,-1451.5 150.62,-1410.5 279.88,-1410.5 279.88,-1451.5"/>
<text text-anchor="middle" x="215.25" y="-1434.2" font-family="Times,serif" font-size="14.00">n_000</text>
<text text-anchor="middle" x="215.25" y="-1417.7" font-family="Times,serif" font-size="14.00">Request for products</text>
</a>
</g>
</g>
<!-- packaged_products -->
<g id="n_002" class="node">
<title>packaged_products</title>
<g id="a_n_002"><a xlink:href="./remaining_work.html#packaged_products" xlink:title="n_002\nPackaged products">
<polygon fill="none" stroke="black" points="213.25,-1341.5 95.25,-1341.5 95.25,-1300.5 213.25,-1300.5 213.25,-1341.5"/>
<text text-anchor="middle" x="154.25" y="-1324.2" font-family="Times,serif" font-size="14.00">n_002</text>
<text text-anchor="middle" x="154.25" y="-1307.7" font-family="Times,serif" font-size="14.00">Packaged products</text>
</a>
</g>
</g>
<!-- request_for_products&#45;&gt;packaged_products -->
<g id="e_014" class="edge">
<title>request_for_products&#45;&gt;packaged_products</title>
<g id="a_e_014"><a xlink:href="./remaining_work.html#e_014" xlink:title="e_014\lpackage\l">
<path fill="none" stroke="black" d="M204.06,-1410.19C194.78,-1393.75 181.43,-1370.12 170.89,-1351.46"/>
<polygon fill="black" stroke="black" points="174.08,-1349.99 166.11,-1343 167.98,-1353.43 174.08,-1349.99"/>
</a>
</g>
<g id="a_e_014&#45;label"><a xlink:href="./remaining_work.html#e_014" xlink:title="e_014\lpackage\l">
<text text-anchor="start" x="193.25" y="-1379.2" font-family="Times,serif" font-size="14.00" fill="blue">e_014</text>
<text text-anchor="start" x="193.25" y="-1362.7" font-family="Times,serif" font-size="14.00" fill="blue">package</text>
</a>
</g>
</g>
<!-- release_config -->
<g id="n_008" class="node">
<title>release_config</title>
<g id="a_n_008"><a xlink:href="./remaining_work.html#release_config" xlink:title="n_008\nRelease config\nrepository">
<polygon fill="none" stroke="black" points="312.38,-1231.5 216.12,-1231.5 216.12,-1174 312.38,-1174 312.38,-1231.5"/>
<text text-anchor="middle" x="264.25" y="-1214.2" font-family="Times,serif" font-size="14.00">n_008</text>
<text text-anchor="middle" x="264.25" y="-1197.7" font-family="Times,serif" font-size="14.00">Release config</text>
<text text-anchor="middle" x="264.25" y="-1181.2" font-family="Times,serif" font-size="14.00">repository</text>
</a>
</g>
</g>
<!-- request_for_products&#45;&gt;release_config -->
<g id="e_015" class="edge">
<title>request_for_products&#45;&gt;release_config</title>
<g id="a_e_015"><a xlink:href="./remaining_work.html#e_015" xlink:title="e_015\lspecify config\l">
<path fill="none" stroke="black" d="M233.08,-1410.17C237.05,-1404.77 240.8,-1398.7 243.25,-1392.5 262.56,-1343.59 265.96,-1282.35 265.78,-1243.14"/>
<polygon fill="black" stroke="black" points="269.28,-1243.18 265.64,-1233.23 262.28,-1243.28 269.28,-1243.18"/>
</a>
</g>
<g id="a_e_015&#45;label"><a xlink:href="./remaining_work.html#e_015" xlink:title="e_015\lspecify config\l">
<text text-anchor="start" x="262.25" y="-1324.2" font-family="Times,serif" font-size="14.00" fill="forestgreen">e_015</text>
<text text-anchor="start" x="262.25" y="-1307.7" font-family="Times,serif" font-size="14.00" fill="forestgreen">specify config</text>
</a>
</g>
</g>
<!-- request_for_products_area -->
<g id="n_001" class="node">
<title>request_for_products_area</title>
<g id="a_n_001"><a xlink:href="./remaining_work.html#request_for_products_area" xlink:title="n_001\nRequest for\nproducts area\n">
<polygon fill="lightgray" stroke="black" points="583.62,-877 494.88,-877 494.88,-819.5 583.62,-819.5 583.62,-877"/>
<text text-anchor="middle" x="539.25" y="-859.7" font-family="Times,serif" font-size="14.00">n_001</text>
<text text-anchor="middle" x="539.25" y="-843.2" font-family="Times,serif" font-size="14.00">Request for</text>
<text text-anchor="middle" x="539.25" y="-826.7" font-family="Times,serif" font-size="14.00">products area</text>
</a>
</g>
</g>
<!-- base_release -->
<g id="n_009" class="node">
<title>base_release</title>
<g id="a_n_009"><a xlink:href="./remaining_work.html#base_release" xlink:title="n_009\nBase release\n">
<polygon fill="lightcyan" stroke="black" points="423,-640.5 339.5,-640.5 339.5,-599.5 423,-599.5 423,-640.5"/>
<text text-anchor="middle" x="381.25" y="-623.2" font-family="Times,serif" font-size="14.00">n_009</text>
<text text-anchor="middle" x="381.25" y="-606.7" font-family="Times,serif" font-size="14.00">Base release</text>
</a>
</g>
</g>
<!-- request_for_products_area&#45;&gt;base_release -->
<g id="e_017" class="edge">
<title>request_for_products_area&#45;&gt;base_release</title>
<g id="a_e_017"><a xlink:href="./remaining_work.html#e_017" xlink:title="e_017\lcreate\l">
<path fill="none" stroke="black" d="M546.36,-819.22C552.18,-789.96 556.76,-743.67 538.25,-709.5 517.02,-670.31 470.81,-647.34 433.99,-634.66"/>
<polygon fill="black" stroke="black" points="435.43,-631.45 424.83,-631.67 433.25,-638.1 435.43,-631.45"/>
</a>
</g>
<g id="a_e_017&#45;label"><a xlink:href="./remaining_work.html#e_017" xlink:title="e_017\lcreate\l">
<text text-anchor="start" x="549.25" y="-733.2" font-family="Times,serif" font-size="14.00" fill="forestgreen">e_017</text>
<text text-anchor="start" x="549.25" y="-716.7" font-family="Times,serif" font-size="14.00" fill="forestgreen">create</text>
</a>
</g>
</g>
<!-- CVMFS -->
<g id="n_011" class="node">
<title>CVMFS</title>
<g id="a_n_011"><a xlink:href="./remaining_work.html#CVMFS" xlink:title="n_011\nCVMFS\n">
<polygon fill="lightcyan" stroke="black" points="392.5,-750.5 330,-750.5 330,-709.5 392.5,-709.5 392.5,-750.5"/>
<text text-anchor="middle" x="361.25" y="-733.2" font-family="Times,serif" font-size="14.00">n_011</text>
<text text-anchor="middle" x="361.25" y="-716.7" font-family="Times,serif" font-size="14.00">CVMFS</text>
</a>
</g>
</g>
<!-- request_for_products_area&#45;&gt;CVMFS -->
<g id="e_016" class="edge">
<title>request_for_products_area&#45;&gt;CVMFS</title>
<g id="a_e_016"><a xlink:href="./remaining_work.html#e_016" xlink:title="e_016\lcreate\l">
<path fill="none" stroke="black" d="M496.16,-819.11C467.26,-800.23 429.47,-775.55 401.24,-757.11"/>
<polygon fill="black" stroke="black" points="403.23,-754.24 392.95,-751.7 399.4,-760.1 403.23,-754.24"/>
</a>
</g>
<g id="a_e_016&#45;label"><a xlink:href="./remaining_work.html#e_016" xlink:title="e_016\lcreate\l">
<text text-anchor="start" x="465.25" y="-788.2" font-family="Times,serif" font-size="14.00" fill="forestgreen">e_016</text>
<text text-anchor="start" x="465.25" y="-771.7" font-family="Times,serif" font-size="14.00" fill="forestgreen">create</text>
</a>
</g>
</g>
<!-- built_products -->
<g id="n_005" class="node">
<title>built_products</title>
<g id="a_n_005"><a xlink:href="./remaining_work.html#built_products" xlink:title="n_005\nBuilt products\n">
<polygon fill="khaki" stroke="black" points="201.88,-1156 108.62,-1156 108.62,-1115 201.88,-1115 201.88,-1156"/>
<text text-anchor="middle" x="155.25" y="-1138.7" font-family="Times,serif" font-size="14.00">n_005</text>
<text text-anchor="middle" x="155.25" y="-1122.2" font-family="Times,serif" font-size="14.00">Built products</text>
</a>
</g>
</g>
<!-- packaged_products&#45;&gt;built_products -->
<g id="e_008" class="edge">
<title>packaged_products&#45;&gt;built_products</title>
<g id="a_e_008"><a xlink:href="./remaining_work.html#e_008" xlink:title="e_008\lbuild\l">
<path fill="none" stroke="black" d="M147.35,-1300.38C145.66,-1294.69 144.1,-1288.41 143.25,-1282.5 137.59,-1243.12 143.33,-1197.34 148.65,-1167.7"/>
<polygon fill="black" stroke="black" points="152.08,-1168.39 150.51,-1157.91 145.21,-1167.08 152.08,-1168.39"/>
</a>
</g>
<g id="a_e_008&#45;label"><a xlink:href="./remaining_work.html#e_008" xlink:title="e_008\lbuild\l">
<text text-anchor="start" x="143.25" y="-1269.2" font-family="Times,serif" font-size="14.00" fill="blue">e_008</text>
<text text-anchor="start" x="143.25" y="-1252.7" font-family="Times,serif" font-size="14.00" fill="blue">build</text>
</a>
</g>
</g>
<!-- packaged_products&#45;&gt;release_config -->
<g id="e_009" class="edge">
<title>packaged_products&#45;&gt;release_config</title>
<g id="a_e_009"><a xlink:href="./remaining_work.html#e_009" xlink:title="e_009\lregister\l">
<path fill="none" stroke="black" d="M168.08,-1300.27C178.75,-1285.62 194.25,-1265.5 209.75,-1249.5 213.04,-1246.11 216.56,-1242.71 220.17,-1239.38"/>
<polygon fill="black" stroke="black" points="222.44,-1242.05 227.57,-1232.78 217.78,-1236.82 222.44,-1242.05"/>
</a>
</g>
<g id="a_e_009&#45;label"><a xlink:href="./remaining_work.html#e_009" xlink:title="e_009\lregister\l">
<text text-anchor="start" x="209.25" y="-1269.2" font-family="Times,serif" font-size="14.00" fill="forestgreen">e_009</text>
<text text-anchor="start" x="209.25" y="-1252.7" font-family="Times,serif" font-size="14.00" fill="forestgreen">register</text>
</a>
</g>
</g>
<!-- scisoft -->
<g id="n_003" class="node">
<title>scisoft</title>
<g id="a_n_003"><a xlink:href="./remaining_work.html#scisoft" xlink:title="n_003\nBuilt product\nserver\n">
<polygon fill="pink" stroke="black" points="268.25,-877 180.25,-877 180.25,-819.5 268.25,-819.5 268.25,-877"/>
<text text-anchor="middle" x="224.25" y="-859.7" font-family="Times,serif" font-size="14.00">n_003</text>
<text text-anchor="middle" x="224.25" y="-843.2" font-family="Times,serif" font-size="14.00">Built product</text>
<text text-anchor="middle" x="224.25" y="-826.7" font-family="Times,serif" font-size="14.00">server</text>
</a>
</g>
</g>
<!-- scisoft&#45;&gt;base_release -->
<g id="e_019" class="edge">
<title>scisoft&#45;&gt;base_release</title>
<g id="a_e_019"><a xlink:href="./remaining_work.html#e_019" xlink:title="e_019\linstall\l">
<path fill="none" stroke="black" d="M232.63,-819.07C242.17,-789.9 259.66,-743.87 284.25,-709.5 301.04,-686.03 324.95,-664.12 344.83,-647.98"/>
<polygon fill="black" stroke="black" points="346.8,-650.89 352.45,-641.93 342.45,-645.4 346.8,-650.89"/>
</a>
</g>
<g id="a_e_019&#45;label"><a xlink:href="./remaining_work.html#e_019" xlink:title="e_019\linstall\l">
<text text-anchor="start" x="284.25" y="-733.2" font-family="Times,serif" font-size="14.00" fill="blue">e_019</text>
<text text-anchor="start" x="284.25" y="-716.7" font-family="Times,serif" font-size="14.00" fill="blue">install</text>
</a>
</g>
</g>
<!-- test_release -->
<g id="n_010" class="node">
<title>test_release</title>
<g id="a_n_010"><a xlink:href="./remaining_work.html#test_release" xlink:title="n_010\nTest release\n">
<polygon fill="lightcyan" stroke="black" points="209.5,-530.5 129,-530.5 129,-489.5 209.5,-489.5 209.5,-530.5"/>
<text text-anchor="middle" x="169.25" y="-513.2" font-family="Times,serif" font-size="14.00">n_010</text>
<text text-anchor="middle" x="169.25" y="-496.7" font-family="Times,serif" font-size="14.00">Test release</text>
</a>
</g>
</g>
<!-- scisoft&#45;&gt;test_release -->
<g id="e_020" class="edge">
<title>scisoft&#45;&gt;test_release</title>
<g id="a_e_020"><a xlink:href="./remaining_work.html#e_020" xlink:title="e_020\linstall\l">
<path fill="none" stroke="black" d="M202.34,-819.08C180.69,-789.3 149.01,-740.01 136.25,-691.5 127.55,-658.42 134.24,-588.42 147.25,-548.5 148.08,-545.96 149.1,-543.4 150.24,-540.88"/>
<polygon fill="black" stroke="black" points="153.24,-542.7 154.76,-532.22 147.04,-539.46 153.24,-542.7"/>
</a>
</g>
<g id="a_e_020&#45;label"><a xlink:href="./remaining_work.html#e_020" xlink:title="e_020\linstall\l">
<text text-anchor="start" x="136.25" y="-678.2" font-family="Times,serif" font-size="14.00" fill="blue">e_020</text>
<text text-anchor="start" x="136.25" y="-661.7" font-family="Times,serif" font-size="14.00" fill="blue">install</text>
</a>
</g>
</g>
<!-- scisoft&#45;&gt;CVMFS -->
<g id="e_018" class="edge">
<title>scisoft&#45;&gt;CVMFS</title>
<g id="a_e_018"><a xlink:href="./remaining_work.html#e_018" xlink:title="e_018\linstall\l">
<path fill="none" stroke="black" d="M257.41,-819.11C279.27,-800.56 307.73,-776.41 329.33,-758.09"/>
<polygon fill="black" stroke="black" points="331.32,-760.99 336.68,-751.85 326.79,-755.65 331.32,-760.99"/>
</a>
</g>
<g id="a_e_018&#45;label"><a xlink:href="./remaining_work.html#e_018" xlink:title="e_018\linstall\l">
<text text-anchor="start" x="316.25" y="-788.2" font-family="Times,serif" font-size="14.00" fill="blue">e_018</text>
<text text-anchor="start" x="316.25" y="-771.7" font-family="Times,serif" font-size="14.00" fill="blue">install</text>
</a>
</g>
</g>
<!-- suite_config_server -->
<g id="n_004" class="node">
<title>suite_config_server</title>
<g id="a_n_004"><a xlink:href="./remaining_work.html#suite_config_server" xlink:title="n_004\nSuite configuration\nserver\n">
<polygon fill="pink" stroke="black" points="417.38,-877 297.12,-877 297.12,-819.5 417.38,-819.5 417.38,-877"/>
<text text-anchor="middle" x="357.25" y="-859.7" font-family="Times,serif" font-size="14.00">n_004</text>
<text text-anchor="middle" x="357.25" y="-843.2" font-family="Times,serif" font-size="14.00">Suite configuration</text>
<text text-anchor="middle" x="357.25" y="-826.7" font-family="Times,serif" font-size="14.00">server</text>
</a>
</g>
</g>
<!-- suite_config_server&#45;&gt;base_release -->
<g id="e_022" class="edge">
<title>suite_config_server&#45;&gt;base_release</title>
<g id="a_e_022"><a xlink:href="./remaining_work.html#e_022" xlink:title="e_022\lretrieve\l">
<path fill="none" stroke="black" d="M417.8,-840.37C442.3,-834.27 468.29,-822.85 483.25,-801.5 519.41,-749.9 458.43,-684.47 416.24,-648.25"/>
<polygon fill="black" stroke="black" points="418.64,-645.7 408.73,-641.96 414.15,-651.06 418.64,-645.7"/>
</a>
</g>
<g id="a_e_022&#45;label"><a xlink:href="./remaining_work.html#e_022" xlink:title="e_022\lretrieve\l">
<text text-anchor="start" x="491.25" y="-733.2" font-family="Times,serif" font-size="14.00" fill="goldenrod">e_022</text>
<text text-anchor="start" x="491.25" y="-716.7" font-family="Times,serif" font-size="14.00" fill="goldenrod">retrieve</text>
</a>
</g>
</g>
<!-- suite_config_server&#45;&gt;test_release -->
<g id="e_023" class="edge">
<title>suite_config_server&#45;&gt;test_release</title>
<g id="a_e_023"><a xlink:href="./remaining_work.html#e_023" xlink:title="e_023\lretrieve\l">
<path fill="none" stroke="black" d="M296.64,-820.14C288.46,-814.76 280.68,-808.55 274.25,-801.5 202.38,-722.66 206.62,-684.34 178.25,-581.5 174.74,-568.79 172.6,-554.41 171.28,-541.96"/>
<polygon fill="black" stroke="black" points="174.79,-541.9 170.4,-532.25 167.82,-542.53 174.79,-541.9"/>
</a>
</g>
<g id="a_e_023&#45;label"><a xlink:href="./remaining_work.html#e_023" xlink:title="e_023\lretrieve\l">
<text text-anchor="start" x="206.25" y="-678.2" font-family="Times,serif" font-size="14.00" fill="goldenrod">e_023</text>
<text text-anchor="start" x="206.25" y="-661.7" font-family="Times,serif" font-size="14.00" fill="goldenrod">retrieve</text>
</a>
</g>
</g>
<!-- suite_config_server&#45;&gt;CVMFS -->
<g id="e_021" class="edge">
<title>suite_config_server&#45;&gt;CVMFS</title>
<g id="a_e_021"><a xlink:href="./remaining_work.html#e_021" xlink:title="e_021\lretrieve\l">
<path fill="none" stroke="black" d="M358.22,-819.11C358.81,-801.97 359.56,-780.03 360.17,-762.33"/>
<polygon fill="black" stroke="black" points="363.67,-762.5 360.51,-752.39 356.67,-762.26 363.67,-762.5"/>
</a>
</g>
<g id="a_e_021&#45;label"><a xlink:href="./remaining_work.html#e_021" xlink:title="e_021\lretrieve\l">
<text text-anchor="start" x="359.25" y="-788.2" font-family="Times,serif" font-size="14.00" fill="goldenrod">e_021</text>
<text text-anchor="start" x="359.25" y="-771.7" font-family="Times,serif" font-size="14.00" fill="goldenrod">retrieve</text>
</a>
</g>
</g>
<!-- built_products&#45;&gt;scisoft -->
<g id="e_004" class="edge">
<title>built_products&#45;&gt;scisoft</title>
<g id="a_e_004"><a xlink:href="./remaining_work.html#e_004" xlink:title="e_004\lupload\l">
<path fill="none" stroke="black" d="M159.99,-1114.89C171.29,-1068.21 199.94,-949.75 214.87,-888.01"/>
<polygon fill="black" stroke="black" points="218.19,-889.19 217.14,-878.64 211.39,-887.54 218.19,-889.19"/>
</a>
</g>
<g id="a_e_004&#45;label"><a xlink:href="./remaining_work.html#e_004" xlink:title="e_004\lupload\l">
<text text-anchor="start" x="185.25" y="-1024.7" font-family="Times,serif" font-size="14.00" fill="forestgreen">e_004</text>
<text text-anchor="start" x="185.25" y="-1008.2" font-family="Times,serif" font-size="14.00" fill="forestgreen">upload</text>
</a>
</g>
</g>
<!-- built_env -->
<g id="n_006" class="node">
<title>built_env</title>
<g id="a_n_006"><a xlink:href="./remaining_work.html#built_env" xlink:title="n_006\nBuilt suites\n">
<polygon fill="khaki" stroke="black" points="303,-987 225.5,-987 225.5,-946 303,-946 303,-987"/>
<text text-anchor="middle" x="264.25" y="-969.7" font-family="Times,serif" font-size="14.00">n_006</text>
<text text-anchor="middle" x="264.25" y="-953.2" font-family="Times,serif" font-size="14.00">Built suites</text>
</a>
</g>
</g>
<!-- built_env&#45;&gt;scisoft -->
<g id="e_011" class="edge">
<title>built_env&#45;&gt;scisoft</title>
<g id="a_e_011"><a xlink:href="./remaining_work.html#e_011" xlink:title="e_011\lupload\l">
<path fill="none" stroke="black" d="M257.37,-945.52C251.93,-929.71 244.17,-907.15 237.53,-887.85"/>
<polygon fill="black" stroke="black" points="240.93,-886.98 234.37,-878.66 234.31,-889.26 240.93,-886.98"/>
</a>
</g>
<g id="a_e_011&#45;label"><a xlink:href="./remaining_work.html#e_011" xlink:title="e_011\lupload\l">
<text text-anchor="start" x="251.25" y="-914.7" font-family="Times,serif" font-size="14.00" fill="forestgreen">e_011</text>
<text text-anchor="start" x="251.25" y="-898.2" font-family="Times,serif" font-size="14.00" fill="forestgreen">upload</text>
</a>
</g>
</g>
<!-- built_env&#45;&gt;suite_config_server -->
<g id="e_012" class="edge">
<title>built_env&#45;&gt;suite_config_server</title>
<g id="a_e_012"><a xlink:href="./remaining_work.html#e_012" xlink:title="e_012\lupload\l">
<path fill="none" stroke="black" d="M280.24,-945.52C293.3,-929.19 312.11,-905.68 327.87,-885.98"/>
<polygon fill="black" stroke="black" points="330.4,-888.41 333.92,-878.41 324.94,-884.04 330.4,-888.41"/>
</a>
</g>
<g id="a_e_012&#45;label"><a xlink:href="./remaining_work.html#e_012" xlink:title="e_012\lupload\l">
<text text-anchor="start" x="318.25" y="-914.7" font-family="Times,serif" font-size="14.00" fill="goldenrod">e_012</text>
<text text-anchor="start" x="318.25" y="-898.2" font-family="Times,serif" font-size="14.00" fill="goldenrod">upload</text>
</a>
</g>
</g>
<!-- packaged_suites -->
<g id="n_007" class="node">
<title>packaged_suites</title>
<g id="a_n_007"><a xlink:href="./remaining_work.html#packaged_suites" xlink:title="n_007\nPackaged suites">
<polygon fill="none" stroke="black" points="315.38,-1097 213.12,-1097 213.12,-1056 315.38,-1056 315.38,-1097"/>
<text text-anchor="middle" x="264.25" y="-1079.7" font-family="Times,serif" font-size="14.00">n_007</text>
<text text-anchor="middle" x="264.25" y="-1063.2" font-family="Times,serif" font-size="14.00">Packaged suites</text>
</a>
</g>
</g>
<!-- packaged_suites&#45;&gt;built_env -->
<g id="e_010" class="edge">
<title>packaged_suites&#45;&gt;built_env</title>
<g id="a_e_010"><a xlink:href="./remaining_work.html#e_010" xlink:title="e_010\lbuild\l">
<path fill="none" stroke="black" d="M264.25,-1055.69C264.25,-1039.71 264.25,-1016.93 264.25,-998.53"/>
<polygon fill="black" stroke="black" points="267.75,-998.7 264.25,-988.7 260.75,-998.7 267.75,-998.7"/>
</a>
</g>
<g id="a_e_010&#45;label"><a xlink:href="./remaining_work.html#e_010" xlink:title="e_010\lbuild\l">
<text text-anchor="start" x="264.25" y="-1024.7" font-family="Times,serif" font-size="14.00" fill="forestgreen">e_010</text>
<text text-anchor="start" x="264.25" y="-1008.2" font-family="Times,serif" font-size="14.00" fill="forestgreen">build</text>
</a>
</g>
</g>
<!-- release_config&#45;&gt;packaged_suites -->
<g id="e_013" class="edge">
<title>release_config&#45;&gt;packaged_suites</title>
<g id="a_e_013"><a xlink:href="./remaining_work.html#e_013" xlink:title="e_013\linstantiate\l">
<path fill="none" stroke="black" d="M264.25,-1173.56C264.25,-1154.25 264.25,-1128.65 264.25,-1108.73"/>
<polygon fill="black" stroke="black" points="267.75,-1108.97 264.25,-1098.97 260.75,-1108.97 267.75,-1108.97"/>
</a>
</g>
<g id="a_e_013&#45;label"><a xlink:href="./remaining_work.html#e_013" xlink:title="e_013\linstantiate\l">
<text text-anchor="start" x="264.25" y="-1138.7" font-family="Times,serif" font-size="14.00" fill="blue">e_013</text>
<text text-anchor="start" x="264.25" y="-1122.2" font-family="Times,serif" font-size="14.00" fill="blue">instantiate</text>
</a>
</g>
</g>
<!-- base_release&#45;&gt;test_release -->
<g id="e_007" class="edge">
<title>base_release&#45;&gt;test_release</title>
<g id="a_e_007"><a xlink:href="./remaining_work.html#e_007" xlink:title="e_007\llayer\l">
<path fill="none" stroke="black" d="M339.19,-614.45C293.43,-608.77 224.01,-597.76 203.25,-581.5 190.59,-571.58 182.37,-555.76 177.19,-541.62"/>
<polygon fill="black" stroke="black" points="180.55,-540.65 174.13,-532.23 173.9,-542.82 180.55,-540.65"/>
</a>
</g>
<g id="a_e_007&#45;label"><a xlink:href="./remaining_work.html#e_007" xlink:title="e_007\llayer\l">
<text text-anchor="start" x="203.25" y="-568.2" font-family="Times,serif" font-size="14.00" fill="forestgreen">e_007</text>
<text text-anchor="start" x="203.25" y="-551.7" font-family="Times,serif" font-size="14.00" fill="forestgreen">layer</text>
</a>
</g>
</g>
<!-- runtime -->
<g id="n_012" class="node">
<title>runtime</title>
<g id="a_n_012"><a xlink:href="./remaining_work.html#runtime" xlink:title="n_012\nRuntime\nenvironment\n">
<polygon fill="palegreen" stroke="black" points="325.75,-420.5 240.75,-420.5 240.75,-363 325.75,-363 325.75,-420.5"/>
<text text-anchor="middle" x="283.25" y="-403.2" font-family="Times,serif" font-size="14.00">n_012</text>
<text text-anchor="middle" x="283.25" y="-386.7" font-family="Times,serif" font-size="14.00">Runtime</text>
<text text-anchor="middle" x="283.25" y="-370.2" font-family="Times,serif" font-size="14.00">environment</text>
</a>
</g>
</g>
<!-- base_release&#45;&gt;runtime -->
<g id="e_006" class="edge">
<title>base_release&#45;&gt;runtime</title>
<g id="a_e_006"><a xlink:href="./remaining_work.html#e_006" xlink:title="e_006\lsetup\l">
<path fill="none" stroke="black" d="M370.78,-599.2C361.53,-581.42 347.89,-554.5 337.25,-530.5 322.58,-497.44 307.71,-459.07 297.3,-431.24"/>
<polygon fill="black" stroke="black" points="300.7,-430.32 293.93,-422.17 294.13,-432.76 300.7,-430.32"/>
</a>
</g>
<g id="a_e_006&#45;label"><a xlink:href="./remaining_work.html#e_006" xlink:title="e_006\lsetup\l">
<text text-anchor="start" x="337.25" y="-513.2" font-family="Times,serif" font-size="14.00" fill="blue">e_006</text>
<text text-anchor="start" x="337.25" y="-496.7" font-family="Times,serif" font-size="14.00" fill="blue">setup</text>
</a>
</g>
</g>
<!-- grid -->
<g id="n_013" class="node">
<title>grid</title>
<g id="a_n_013"><a xlink:href="./remaining_work.html#grid" xlink:title="n_013\nGrid\nenvironment\n">
<polygon fill="palegreen" stroke="black" points="403.75,-167.5 318.75,-167.5 318.75,-110 403.75,-110 403.75,-167.5"/>
<text text-anchor="middle" x="361.25" y="-150.2" font-family="Times,serif" font-size="14.00">n_013</text>
<text text-anchor="middle" x="361.25" y="-133.7" font-family="Times,serif" font-size="14.00">Grid</text>
<text text-anchor="middle" x="361.25" y="-117.2" font-family="Times,serif" font-size="14.00">environment</text>
</a>
</g>
</g>
<!-- base_release&#45;&gt;grid -->
<g id="e_005" class="edge">
<title>base_release&#45;&gt;grid</title>
<g id="a_e_005"><a xlink:href="./remaining_work.html#e_005" xlink:title="e_005\lrelocate\l">
<path fill="none" stroke="black" d="M396.12,-599.2C399.62,-593.71 402.98,-587.58 405.25,-581.5 422.51,-535.21 417.69,-520.77 421.25,-471.5 428.84,-366.54 415.87,-339.05 392.25,-236.5 387.76,-217 381.16,-195.78 375.2,-178.2"/>
<polygon fill="black" stroke="black" points="378.67,-177.51 372.1,-169.2 372.05,-179.79 378.67,-177.51"/>
</a>
</g>
<g id="a_e_005&#45;label"><a xlink:href="./remaining_work.html#e_005" xlink:title="e_005\lrelocate\l">
<text text-anchor="start" x="423.25" y="-394.95" font-family="Times,serif" font-size="14.00" fill="forestgreen">e_005</text>
<text text-anchor="start" x="423.25" y="-378.45" font-family="Times,serif" font-size="14.00" fill="forestgreen">relocate</text>
</a>
</g>
</g>
<!-- test_release&#45;&gt;runtime -->
<g id="e_025" class="edge">
<title>test_release&#45;&gt;runtime</title>
<g id="a_e_025"><a xlink:href="./remaining_work.html#e_025" xlink:title="e_025\lsetup\l">
<path fill="none" stroke="black" d="M181.85,-489.27C191.83,-474.44 206.65,-454.08 222.25,-438.5 225.77,-434.98 229.57,-431.52 233.49,-428.15"/>
<polygon fill="black" stroke="black" points="235.54,-431 241.05,-421.95 231.1,-425.59 235.54,-431"/>
</a>
</g>
<g id="a_e_025&#45;label"><a xlink:href="./remaining_work.html#e_025" xlink:title="e_025\lsetup\l">
<text text-anchor="start" x="222.25" y="-458.2" font-family="Times,serif" font-size="14.00" fill="blue">e_025</text>
<text text-anchor="start" x="222.25" y="-441.7" font-family="Times,serif" font-size="14.00" fill="blue">setup</text>
</a>
</g>
</g>
<!-- test_release&#45;&gt;grid -->
<g id="e_024" class="edge">
<title>test_release&#45;&gt;grid</title>
<g id="a_e_024"><a xlink:href="./remaining_work.html#e_024" xlink:title="e_024\lrelocate\l">
<path fill="none" stroke="black" d="M157.62,-489.24C131.18,-441.49 72.85,-317.75 126.25,-236.5 165.92,-176.13 250.97,-153.41 307.12,-144.87"/>
<polygon fill="black" stroke="black" points="307.38,-148.37 316.8,-143.51 306.41,-141.44 307.38,-148.37"/>
</a>
</g>
<g id="a_e_024&#45;label"><a xlink:href="./remaining_work.html#e_024" xlink:title="e_024\lrelocate\l">
<text text-anchor="start" x="106.25" y="-331.7" font-family="Times,serif" font-size="14.00" fill="forestgreen">e_024</text>
<text text-anchor="start" x="106.25" y="-315.2" font-family="Times,serif" font-size="14.00" fill="forestgreen">relocate</text>
</a>
</g>
</g>
<!-- CVMFS&#45;&gt;base_release -->
<g id="e_002" class="edge">
<title>CVMFS&#45;&gt;base_release</title>
<g id="a_e_002"><a xlink:href="./remaining_work.html#e_002" xlink:title="e_002\llayer\l">
<path fill="none" stroke="black" d="M364.92,-709.19C367.89,-693.13 372.14,-670.21 375.55,-651.77"/>
<polygon fill="black" stroke="black" points="378.95,-652.64 377.33,-642.17 372.07,-651.37 378.95,-652.64"/>
</a>
</g>
<g id="a_e_002&#45;label"><a xlink:href="./remaining_work.html#e_002" xlink:title="e_002\llayer\l">
<text text-anchor="start" x="373.25" y="-678.2" font-family="Times,serif" font-size="14.00" fill="forestgreen">e_002</text>
<text text-anchor="start" x="373.25" y="-661.7" font-family="Times,serif" font-size="14.00" fill="forestgreen">layer</text>
</a>
</g>
</g>
<!-- CVMFS&#45;&gt;CVMFS -->
<g id="e_003" class="edge">
<title>CVMFS&#45;&gt;CVMFS</title>
<g id="a_e_003"><a xlink:href="./remaining_work.html#e_003" xlink:title="e_003\lpublish\l">
<path fill="none" stroke="black" d="M392.77,-740.21C406.12,-740.98 417.5,-737.57 417.5,-730 417.5,-724.73 412,-721.49 404.16,-720.25"/>
<polygon fill="black" stroke="black" points="404.42,-716.76 394.28,-719.85 404.13,-723.75 404.42,-716.76"/>
</a>
</g>
<g id="a_e_003&#45;label"><a xlink:href="./remaining_work.html#e_003" xlink:title="e_003\lpublish\l">
<text text-anchor="start" x="417.5" y="-733.2" font-family="Times,serif" font-size="14.00" fill="blue">e_003</text>
<text text-anchor="start" x="417.5" y="-716.7" font-family="Times,serif" font-size="14.00" fill="blue">publish</text>
</a>
</g>
</g>
<!-- CVMFS&#45;&gt;runtime -->
<g id="e_001" class="edge">
<title>CVMFS&#45;&gt;runtime</title>
<g id="a_e_001"><a xlink:href="./remaining_work.html#e_001" xlink:title="e_001\lsetup\l">
<path fill="none" stroke="black" d="M353.41,-709.02C346.43,-691.12 335.99,-664.12 327.25,-640.5 317.59,-614.4 312.64,-608.59 306.25,-581.5 294.29,-530.8 288.34,-470.89 285.53,-432.38"/>
<polygon fill="black" stroke="black" points="289.02,-432.16 284.84,-422.42 282.04,-432.64 289.02,-432.16"/>
</a>
</g>
<g id="a_e_001&#45;label"><a xlink:href="./remaining_work.html#e_001" xlink:title="e_001\lsetup\l">
<text text-anchor="start" x="306.25" y="-568.2" font-family="Times,serif" font-size="14.00" fill="blue">e_001</text>
<text text-anchor="start" x="306.25" y="-551.7" font-family="Times,serif" font-size="14.00" fill="blue">setup</text>
</a>
</g>
</g>
<!-- CVMFS&#45;&gt;grid -->
<g id="e_000" class="edge">
<title>CVMFS&#45;&gt;grid</title>
<g id="a_e_000"><a xlink:href="./remaining_work.html#e_000" xlink:title="e_000\lsetup\l">
<path fill="none" stroke="black" d="M392.85,-709.69C399.84,-704.4 406.79,-698.25 412.25,-691.5 427.89,-672.17 428.02,-664.29 435.25,-640.5 471.44,-521.46 495.78,-485.18 472.25,-363 456.18,-279.57 445.62,-257.96 401.25,-185.5 399.44,-182.54 397.43,-179.58 395.3,-176.67"/>
<polygon fill="black" stroke="black" points="398.07,-174.54 389.15,-168.82 392.56,-178.85 398.07,-174.54"/>
</a>
</g>
<g id="a_e_000&#45;label"><a xlink:href="./remaining_work.html#e_000" xlink:title="e_000\lsetup\l">
<text text-anchor="start" x="481.25" y="-458.2" font-family="Times,serif" font-size="14.00" fill="blue">e_000</text>
<text text-anchor="start" x="481.25" y="-441.7" font-family="Times,serif" font-size="14.00" fill="blue">setup</text>
</a>
</g>
</g>
<!-- runtime&#45;&gt;grid -->
<g id="e_027" class="edge">
<title>runtime&#45;&gt;grid</title>
<g id="a_e_027"><a xlink:href="./remaining_work.html#e_027" xlink:title="e_027\lsubmit\l">
<path fill="none" stroke="black" d="M307.01,-362.64C310.88,-357.05 314.52,-351.04 317.25,-345 341.91,-290.53 353.04,-221.57 357.84,-179.07"/>
<polygon fill="black" stroke="black" points="361.3,-179.64 358.88,-169.32 354.34,-178.9 361.3,-179.64"/>
</a>
</g>
<g id="a_e_027&#45;label"><a xlink:href="./remaining_work.html#e_027" xlink:title="e_027\lsubmit\l">
<text text-anchor="start" x="348.25" y="-268.45" font-family="Times,serif" font-size="14.00" fill="blue">e_027</text>
<text text-anchor="start" x="348.25" y="-251.95" font-family="Times,serif" font-size="14.00" fill="blue">submit</text>
</a>
</g>
</g>
<!-- development -->
<g id="n_014" class="node">
<title>development</title>
<g id="a_n_014"><a xlink:href="./remaining_work.html#development" xlink:title="n_014\nDevelopment\nenvironment\n">
<polygon fill="palegreen" stroke="black" points="228,-294 138.5,-294 138.5,-236.5 228,-236.5 228,-294"/>
<text text-anchor="middle" x="183.25" y="-276.7" font-family="Times,serif" font-size="14.00">n_014</text>
<text text-anchor="middle" x="183.25" y="-260.2" font-family="Times,serif" font-size="14.00">Development</text>
<text text-anchor="middle" x="183.25" y="-243.7" font-family="Times,serif" font-size="14.00">environment</text>
</a>
</g>
</g>
<!-- runtime&#45;&gt;development -->
<g id="e_026" class="edge">
<title>runtime&#45;&gt;development</title>
<g id="a_e_026"><a xlink:href="./remaining_work.html#e_026" xlink:title="e_026\lsetup&#45;for&#45;dev\l">
<path fill="none" stroke="black" d="M254.58,-362.87C249.07,-357.11 243.47,-350.98 238.5,-345 227.77,-332.08 216.94,-317.15 207.75,-303.79"/>
<polygon fill="black" stroke="black" points="210.73,-301.95 202.22,-295.65 204.94,-305.89 210.73,-301.95"/>
</a>
</g>
<g id="a_e_026&#45;label"><a xlink:href="./remaining_work.html#e_026" xlink:title="e_026\lsetup&#45;for&#45;dev\l">
<text text-anchor="start" x="238.25" y="-331.7" font-family="Times,serif" font-size="14.00" fill="goldenrod">e_026</text>
<text text-anchor="start" x="238.25" y="-315.2" font-family="Times,serif" font-size="14.00" fill="goldenrod">setup&#45;for&#45;dev</text>
</a>
</g>
</g>
<!-- development&#45;&gt;packaged_products -->
<g id="e_035" class="edge">
<title>development&#45;&gt;packaged_products</title>
<g id="a_e_035"><a xlink:href="./remaining_work.html#e_035" xlink:title="e_035\lpackage\l">
<path fill="none" stroke="black" d="M166.17,-294.33C157.01,-309.37 145.53,-328.2 135.25,-345 105.56,-393.5 68.25,-397.14 68.25,-454 68.25,-1203.75 68.25,-1203.75 68.25,-1203.75 68.25,-1239.52 94.9,-1271.49 118.53,-1292.81"/>
<polygon fill="black" stroke="black" points="116.04,-1295.28 125.89,-1299.17 120.62,-1289.99 116.04,-1295.28"/>
</a>
</g>
<g id="a_e_035&#45;label"><a xlink:href="./remaining_work.html#e_035" xlink:title="e_035\lpackage\l">
<text text-anchor="start" x="68.25" y="-788.2" font-family="Times,serif" font-size="14.00" fill="blue">e_035</text>
<text text-anchor="start" x="68.25" y="-771.7" font-family="Times,serif" font-size="14.00" fill="blue">package</text>
</a>
</g>
</g>
<!-- development&#45;&gt;base_release -->
<g id="e_033" class="edge">
<title>development&#45;&gt;base_release</title>
<g id="a_e_033"><a xlink:href="./remaining_work.html#e_033" xlink:title="e_033\linstall\l">
<path fill="none" stroke="black" d="M228.28,-273.21C255.56,-279.42 289.56,-290.94 313.25,-312 393.17,-383.05 390.6,-525.1 384.98,-587.91"/>
<polygon fill="black" stroke="black" points="381.53,-587.22 384.03,-597.52 388.5,-587.91 381.53,-587.22"/>
</a>
</g>
<g id="a_e_033&#45;label"><a xlink:href="./remaining_work.html#e_033" xlink:title="e_033\linstall\l">
<text text-anchor="start" x="383.25" y="-458.2" font-family="Times,serif" font-size="14.00" fill="blue">e_033</text>
<text text-anchor="start" x="383.25" y="-441.7" font-family="Times,serif" font-size="14.00" fill="blue">install</text>
</a>
</g>
</g>
<!-- development&#45;&gt;test_release -->
<g id="e_036" class="edge">
<title>development&#45;&gt;test_release</title>
<g id="a_e_036"><a xlink:href="./remaining_work.html#e_036" xlink:title="e_036\linstall\l">
<path fill="none" stroke="black" d="M181.62,-294.47C178.99,-340.19 173.8,-430.12 171.05,-477.72"/>
<polygon fill="black" stroke="black" points="167.56,-477.44 170.48,-487.62 174.55,-477.84 167.56,-477.44"/>
</a>
</g>
<g id="a_e_036&#45;label"><a xlink:href="./remaining_work.html#e_036" xlink:title="e_036\linstall\l">
<text text-anchor="start" x="177.25" y="-394.95" font-family="Times,serif" font-size="14.00" fill="blue">e_036</text>
<text text-anchor="start" x="177.25" y="-378.45" font-family="Times,serif" font-size="14.00" fill="blue">install</text>
</a>
</g>
</g>
<!-- development&#45;&gt;grid -->
<g id="e_034" class="edge">
<title>development&#45;&gt;grid</title>
<g id="a_e_034"><a xlink:href="./remaining_work.html#e_034" xlink:title="e_034\luse\l">
<path fill="none" stroke="black" d="M223.2,-236.31C249.44,-217.95 283.96,-193.81 311.92,-174.25"/>
<polygon fill="black" stroke="black" points="313.7,-177.28 319.89,-168.68 309.69,-171.54 313.7,-177.28"/>
</a>
</g>
<g id="a_e_034&#45;label"><a xlink:href="./remaining_work.html#e_034" xlink:title="e_034\luse\l">
<text text-anchor="start" x="293.25" y="-205.2" font-family="Times,serif" font-size="14.00" fill="blue">e_034</text>
<text text-anchor="start" x="293.25" y="-188.7" font-family="Times,serif" font-size="14.00" fill="blue">use</text>
</a>
</g>
</g>
<!-- development&#45;&gt;development -->
<g id="e_028" class="edge">
<title>development&#45;&gt;development</title>
<g id="a_e_028"><a xlink:href="./remaining_work.html#e_028" xlink:title="e_028\lbuild/tweak\l">
<path fill="none" stroke="black" d="M228.2,-277.1C242.09,-276.86 253,-272.91 253,-265.25 253,-259.86 247.61,-256.31 239.57,-254.6"/>
<polygon fill="black" stroke="black" points="240.01,-251.12 229.7,-253.56 239.28,-258.08 240.01,-251.12"/>
</a>
</g>
<g id="a_e_028&#45;label"><a xlink:href="./remaining_work.html#e_028" xlink:title="e_028\lbuild/tweak\l">
<text text-anchor="start" x="253" y="-268.45" font-family="Times,serif" font-size="14.00" fill="forestgreen">e_028</text>
<text text-anchor="start" x="253" y="-251.95" font-family="Times,serif" font-size="14.00" fill="forestgreen">build/tweak</text>
</a>
</g>
</g>
<!-- PR -->
<g id="n_015" class="node">
<title>PR</title>
<g id="a_n_015"><a xlink:href="./remaining_work.html#PR" xlink:title="n_015\nPull request\n">
<polygon fill="lightgray" stroke="black" points="80.5,-159.25 0,-159.25 0,-118.25 80.5,-118.25 80.5,-159.25"/>
<text text-anchor="middle" x="40.25" y="-141.95" font-family="Times,serif" font-size="14.00">n_015</text>
<text text-anchor="middle" x="40.25" y="-125.45" font-family="Times,serif" font-size="14.00">Pull request</text>
</a>
</g>
</g>
<!-- development&#45;&gt;PR -->
<g id="e_029" class="edge">
<title>development&#45;&gt;PR</title>
<g id="a_e_029"><a xlink:href="./remaining_work.html#e_029" xlink:title="e_029\lcreate\l">
<path fill="none" stroke="black" d="M151.16,-236.31C127.35,-215.59 95.08,-187.48 71.48,-166.94"/>
<polygon fill="black" stroke="black" points="73.88,-164.39 64.04,-160.46 69.28,-169.67 73.88,-164.39"/>
</a>
</g>
<g id="a_e_029&#45;label"><a xlink:href="./remaining_work.html#e_029" xlink:title="e_029\lcreate\l">
<text text-anchor="start" x="128.25" y="-205.2" font-family="Times,serif" font-size="14.00" fill="blue">e_029</text>
<text text-anchor="start" x="128.25" y="-188.7" font-family="Times,serif" font-size="14.00" fill="blue">create</text>
</a>
</g>
</g>
<!-- CI -->
<g id="n_016" class="node">
<title>CI</title>
<g id="a_n_016"><a xlink:href="./remaining_work.html#CI" xlink:title="n_016\nCI\n">
<polygon fill="palegreen" stroke="black" points="67.25,-41 13.25,-41 13.25,0 67.25,0 67.25,-41"/>
<text text-anchor="middle" x="40.25" y="-23.7" font-family="Times,serif" font-size="14.00">n_016</text>
<text text-anchor="middle" x="40.25" y="-7.2" font-family="Times,serif" font-size="14.00">CI</text>
</a>
</g>
</g>
<!-- PR&#45;&gt;CI -->
<g id="e_030" class="edge">
<title>PR&#45;&gt;CI</title>
<g id="a_e_030"><a xlink:href="./remaining_work.html#e_030" xlink:title="e_030\ltrigger\l">
<path fill="none" stroke="black" d="M21.22,-117.95C15.23,-110.43 9.36,-101.39 6.25,-92 1.64,-78.08 0.97,-72.68 6.25,-59 7.37,-56.1 8.83,-53.29 10.51,-50.59"/>
<polygon fill="black" stroke="black" points="13.29,-52.72 16.47,-42.61 7.68,-48.53 13.29,-52.72"/>
</a>
</g>
<g id="a_e_030&#45;label"><a xlink:href="./remaining_work.html#e_030" xlink:title="e_030\ltrigger\l">
<text text-anchor="start" x="6.25" y="-78.7" font-family="Times,serif" font-size="14.00" fill="blue">e_030</text>
<text text-anchor="start" x="6.25" y="-62.2" font-family="Times,serif" font-size="14.00" fill="blue">trigger</text>
</a>
</g>
</g>
<!-- CI&#45;&gt;PR -->
<g id="e_032" class="edge">
<title>CI&#45;&gt;PR</title>
<g id="a_e_032"><a xlink:href="./remaining_work.html#e_032" xlink:title="e_032\lreport\l">
<path fill="none" stroke="black" d="M42.76,-41.32C43.38,-47.02 43.94,-53.25 44.25,-59 45.03,-73.65 44.89,-77.35 44.25,-92 44.04,-96.84 43.7,-101.96 43.31,-106.95"/>
<polygon fill="black" stroke="black" points="39.85,-106.41 42.47,-116.68 46.82,-107.02 39.85,-106.41"/>
</a>
</g>
<g id="a_e_032&#45;label"><a xlink:href="./remaining_work.html#e_032" xlink:title="e_032\lreport\l">
<text text-anchor="start" x="45.25" y="-78.7" font-family="Times,serif" font-size="14.00" fill="blue">e_032</text>
<text text-anchor="start" x="45.25" y="-62.2" font-family="Times,serif" font-size="14.00" fill="blue">report</text>
</a>
</g>
</g>
<!-- CI&#45;&gt;CI -->
<g id="e_031" class="edge">
<title>CI&#45;&gt;CI</title>
<g id="a_e_031"><a xlink:href="./remaining_work.html#e_031" xlink:title="e_031\lprocess\l">
<path fill="none" stroke="black" d="M67.54,-30.56C80.66,-31.8 92.25,-28.45 92.25,-20.5 92.25,-14.97 86.65,-11.67 78.82,-10.58"/>
<polygon fill="black" stroke="black" points="79.1,-7.09 69.05,-10.46 79.01,-14.09 79.1,-7.09"/>
</a>
</g>
<g id="a_e_031&#45;label"><a xlink:href="./remaining_work.html#e_031" xlink:title="e_031\lprocess\l">
<text text-anchor="start" x="92.25" y="-23.7" font-family="Times,serif" font-size="14.00" fill="orange">e_031</text>
<text text-anchor="start" x="92.25" y="-7.2" font-family="Times,serif" font-size="14.00" fill="orange">process</text>
</a>
</g>
</g>
</g>
</svg>
