<?xml version="1.0" encoding="UTF-8" standalone="no"?>
<!DOCTYPE svg PUBLIC "-//W3C//DTD SVG 1.1//EN"
 "http://www.w3.org/Graphics/SVG/1.1/DTD/svg11.dtd">
<!-- Generated by graphviz version 12.2.1 (20241206.2353)
 -->
<!-- Title: spack_workflow Pages: 1 -->
<svg width="592pt" height="1460pt"
 viewBox="0.00 0.00 591.87 1459.50" xmlns="http://www.w3.org/2000/svg" xmlns:xlink="http://www.w3.org/1999/xlink">
<g id="graph0" class="graph" transform="scale(1 1) rotate(0) translate(4 1455.5)">
<title>spack_workflow</title>
<polygon fill="white" stroke="none" points="-4,4 -4,-1455.5 587.87,-1455.5 587.87,4 -4,4"/>
<!-- request_for_products -->
<g id="n_000" class="node">
<title>request_for_products</title>
<g id="a_n_000"><a xlink:href="./remaining_work.html#request_for_products" xlink:title="n_000\nRequest for products\n">
<polygon fill="lightgray" stroke="black" points="280.88,-1451.5 151.62,-1451.5 151.62,-1410.5 280.88,-1410.5 280.88,-1451.5"/>
<text text-anchor="middle" x="216.25" y="-1434.2" font-family="Times,serif" font-size="14.00">n_000</text>
<text text-anchor="middle" x="216.25" y="-1417.7" font-family="Times,serif" font-size="14.00">Request for products</text>
</a>
</g>
</g>
<!-- packaged_products -->
<g id="n_002" class="node">
<title>packaged_products</title>
<g id="a_n_002"><a xlink:href="./remaining_work.html#packaged_products" xlink:title="n_002\nPackaged products">
<polygon fill="none" stroke="black" points="214.25,-1341.5 96.25,-1341.5 96.25,-1300.5 214.25,-1300.5 214.25,-1341.5"/>
<text text-anchor="middle" x="155.25" y="-1324.2" font-family="Times,serif" font-size="14.00">n_002</text>
<text text-anchor="middle" x="155.25" y="-1307.7" font-family="Times,serif" font-size="14.00">Packaged products</text>
</a>
</g>
</g>
<!-- request_for_products&#45;&gt;packaged_products -->
<g id="e_014" class="edge">
<title>request_for_products&#45;&gt;packaged_products</title>
<g id="a_e_014"><a xlink:href="./remaining_work.html#e_014" xlink:title="e_014\lpackage\l">
<path fill="none" stroke="black" d="M205.06,-1410.19C195.78,-1393.75 182.43,-1370.12 171.89,-1351.46"/>
<polygon fill="black" stroke="black" points="175.08,-1349.99 167.11,-1343 168.98,-1353.43 175.08,-1349.99"/>
</a>
</g>
<g id="a_e_014&#45;label"><a xlink:href="./remaining_work.html#e_014" xlink:title="e_014\lpackage\l">
<text text-anchor="start" x="194.78" y="-1379.2" font-family="Times,serif" font-size="14.00">e_014</text>
<text text-anchor="start" x="194.78" y="-1362.7" font-family="Times,serif" font-size="14.00">package</text>
</a>
</g>
</g>
<!-- release_config -->
<g id="n_008" class="node">
<title>release_config</title>
<g id="a_n_008"><a xlink:href="./remaining_work.html#release_config" xlink:title="n_008\nRelease config\nrepository">
<polygon fill="none" stroke="black" points="313.38,-1231.5 217.12,-1231.5 217.12,-1174 313.38,-1174 313.38,-1231.5"/>
<text text-anchor="middle" x="265.25" y="-1214.2" font-family="Times,serif" font-size="14.00">n_008</text>
<text text-anchor="middle" x="265.25" y="-1197.7" font-family="Times,serif" font-size="14.00">Release config</text>
<text text-anchor="middle" x="265.25" y="-1181.2" font-family="Times,serif" font-size="14.00">repository</text>
</a>
</g>
</g>
<!-- request_for_products&#45;&gt;release_config -->
<g id="e_015" class="edge">
<title>request_for_products&#45;&gt;release_config</title>
<g id="a_e_015"><a xlink:href="./remaining_work.html#e_015" xlink:title="e_015\lspecify config\l">
<path fill="none" stroke="black" d="M234.74,-1410.26C238.86,-1404.86 242.73,-1398.76 245.25,-1392.5 264.84,-1343.73 267.78,-1282.46 267.22,-1243.2"/>
<polygon fill="black" stroke="black" points="270.72,-1243.19 266.98,-1233.27 263.72,-1243.35 270.72,-1243.19"/>
</a>
</g>
<g id="a_e_015&#45;label"><a xlink:href="./remaining_work.html#e_015" xlink:title="e_015\lspecify config\l">
<text text-anchor="start" x="264.97" y="-1324.2" font-family="Times,serif" font-size="14.00">e_015</text>
<text text-anchor="start" x="264.97" y="-1307.7" font-family="Times,serif" font-size="14.00">specify config</text>
</a>
</g>
</g>
<!-- request_for_products_area -->
<g id="n_001" class="node">
<title>request_for_products_area</title>
<g id="a_n_001"><a xlink:href="./remaining_work.html#request_for_products_area" xlink:title="n_001\nRequest for\nproducts area\n">
<polygon fill="lightgray" stroke="black" points="583.62,-877 494.88,-877 494.88,-819.5 583.62,-819.5 583.62,-877"/>
<text text-anchor="middle" x="539.25" y="-859.7" font-family="Times,serif" font-size="14.00">n_001</text>
<text text-anchor="middle" x="539.25" y="-843.2" font-family="Times,serif" font-size="14.00">Request for</text>
<text text-anchor="middle" x="539.25" y="-826.7" font-family="Times,serif" font-size="14.00">products area</text>
</a>
</g>
</g>
<!-- base_release -->
<g id="n_009" class="node">
<title>base_release</title>
<g id="a_n_009"><a xlink:href="./remaining_work.html#base_release" xlink:title="n_009\nBase release\n">
<polygon fill="lightcyan" stroke="black" points="425,-640.5 341.5,-640.5 341.5,-599.5 425,-599.5 425,-640.5"/>
<text text-anchor="middle" x="383.25" y="-623.2" font-family="Times,serif" font-size="14.00">n_009</text>
<text text-anchor="middle" x="383.25" y="-606.7" font-family="Times,serif" font-size="14.00">Base release</text>
</a>
</g>
</g>
<!-- request_for_products_area&#45;&gt;base_release -->
<g id="e_017" class="edge">
<title>request_for_products_area&#45;&gt;base_release</title>
<g id="a_e_017"><a xlink:href="./remaining_work.html#e_017" xlink:title="e_017\lcreate\l">
<path fill="none" stroke="black" d="M546.57,-819.27C552.61,-790.05 557.54,-743.79 539.25,-709.5 518.38,-670.36 472.44,-647.38 435.79,-634.69"/>
<polygon fill="black" stroke="black" points="437.27,-631.49 426.68,-631.7 435.09,-638.14 437.27,-631.49"/>
</a>
</g>
<g id="a_e_017&#45;label"><a xlink:href="./remaining_work.html#e_017" xlink:title="e_017\lcreate\l">
<text text-anchor="start" x="550.87" y="-733.2" font-family="Times,serif" font-size="14.00">e_017</text>
<text text-anchor="start" x="550.87" y="-716.7" font-family="Times,serif" font-size="14.00">create</text>
</a>
</g>
</g>
<!-- CVMFS -->
<g id="n_011" class="node">
<title>CVMFS</title>
<g id="a_n_011"><a xlink:href="./remaining_work.html#CVMFS" xlink:title="n_011\nCVMFS\n">
<polygon fill="lightcyan" stroke="black" points="392.5,-750.5 330,-750.5 330,-709.5 392.5,-709.5 392.5,-750.5"/>
<text text-anchor="middle" x="361.25" y="-733.2" font-family="Times,serif" font-size="14.00">n_011</text>
<text text-anchor="middle" x="361.25" y="-716.7" font-family="Times,serif" font-size="14.00">CVMFS</text>
</a>
</g>
</g>
<!-- request_for_products_area&#45;&gt;CVMFS -->
<g id="e_016" class="edge">
<title>request_for_products_area&#45;&gt;CVMFS</title>
<g id="a_e_016"><a xlink:href="./remaining_work.html#e_016" xlink:title="e_016\lcreate\l">
<path fill="none" stroke="black" d="M496.16,-819.11C467.26,-800.23 429.47,-775.55 401.24,-757.11"/>
<polygon fill="black" stroke="black" points="403.23,-754.24 392.95,-751.7 399.4,-760.1 403.23,-754.24"/>
</a>
</g>
<g id="a_e_016&#45;label"><a xlink:href="./remaining_work.html#e_016" xlink:title="e_016\lcreate\l">
<text text-anchor="start" x="466.19" y="-788.2" font-family="Times,serif" font-size="14.00">e_016</text>
<text text-anchor="start" x="466.19" y="-771.7" font-family="Times,serif" font-size="14.00">create</text>
</a>
</g>
</g>
<!-- built_products -->
<g id="n_005" class="node">
<title>built_products</title>
<g id="a_n_005"><a xlink:href="./remaining_work.html#built_products" xlink:title="n_005\nBuilt products\n">
<polygon fill="khaki" stroke="black" points="202.88,-1156 109.62,-1156 109.62,-1115 202.88,-1115 202.88,-1156"/>
<text text-anchor="middle" x="156.25" y="-1138.7" font-family="Times,serif" font-size="14.00">n_005</text>
<text text-anchor="middle" x="156.25" y="-1122.2" font-family="Times,serif" font-size="14.00">Built products</text>
</a>
</g>
</g>
<!-- packaged_products&#45;&gt;built_products -->
<g id="e_008" class="edge">
<title>packaged_products&#45;&gt;built_products</title>
<g id="a_e_008"><a xlink:href="./remaining_work.html#e_008" xlink:title="e_008\lbuild\l">
<path fill="none" stroke="black" d="M148.35,-1300.38C146.66,-1294.69 145.1,-1288.41 144.25,-1282.5 138.59,-1243.12 144.33,-1197.34 149.65,-1167.7"/>
<polygon fill="black" stroke="black" points="153.08,-1168.39 151.51,-1157.91 146.21,-1167.08 153.08,-1168.39"/>
</a>
</g>
<g id="a_e_008&#45;label"><a xlink:href="./remaining_work.html#e_008" xlink:title="e_008\lbuild\l">
<text text-anchor="start" x="144.25" y="-1269.2" font-family="Times,serif" font-size="14.00">e_008</text>
<text text-anchor="start" x="144.25" y="-1252.7" font-family="Times,serif" font-size="14.00">build</text>
</a>
</g>
</g>
<!-- packaged_products&#45;&gt;release_config -->
<g id="e_009" class="edge">
<title>packaged_products&#45;&gt;release_config</title>
<g id="a_e_009"><a xlink:href="./remaining_work.html#e_009" xlink:title="e_009\lregister\l">
<path fill="none" stroke="black" d="M169.08,-1300.27C179.75,-1285.62 195.25,-1265.5 210.75,-1249.5 214.04,-1246.11 217.56,-1242.71 221.17,-1239.38"/>
<polygon fill="black" stroke="black" points="223.44,-1242.05 228.57,-1232.78 218.78,-1236.82 223.44,-1242.05"/>
</a>
</g>
<g id="a_e_009&#45;label"><a xlink:href="./remaining_work.html#e_009" xlink:title="e_009\lregister\l">
<text text-anchor="start" x="210.75" y="-1269.2" font-family="Times,serif" font-size="14.00">e_009</text>
<text text-anchor="start" x="210.75" y="-1252.7" font-family="Times,serif" font-size="14.00">register</text>
</a>
</g>
</g>
<!-- scisoft -->
<g id="n_003" class="node">
<title>scisoft</title>
<g id="a_n_003"><a xlink:href="./remaining_work.html#scisoft" xlink:title="n_003\nBuilt product\nserver\n">
<polygon fill="pink" stroke="black" points="268.25,-877 180.25,-877 180.25,-819.5 268.25,-819.5 268.25,-877"/>
<text text-anchor="middle" x="224.25" y="-859.7" font-family="Times,serif" font-size="14.00">n_003</text>
<text text-anchor="middle" x="224.25" y="-843.2" font-family="Times,serif" font-size="14.00">Built product</text>
<text text-anchor="middle" x="224.25" y="-826.7" font-family="Times,serif" font-size="14.00">server</text>
</a>
</g>
</g>
<!-- scisoft&#45;&gt;base_release -->
<g id="e_019" class="edge">
<title>scisoft&#45;&gt;base_release</title>
<g id="a_e_019"><a xlink:href="./remaining_work.html#e_019" xlink:title="e_019\linstall\l">
<path fill="none" stroke="black" d="M232.56,-819.02C242.04,-789.81 259.49,-743.74 284.25,-709.5 301.35,-685.85 325.75,-663.94 346.05,-647.84"/>
<polygon fill="black" stroke="black" points="348.09,-650.69 353.85,-641.8 343.8,-645.16 348.09,-650.69"/>
</a>
</g>
<g id="a_e_019&#45;label"><a xlink:href="./remaining_work.html#e_019" xlink:title="e_019\linstall\l">
<text text-anchor="start" x="284.25" y="-733.2" font-family="Times,serif" font-size="14.00">e_019</text>
<text text-anchor="start" x="284.25" y="-716.7" font-family="Times,serif" font-size="14.00">install</text>
</a>
</g>
</g>
<!-- test_release -->
<g id="n_010" class="node">
<title>test_release</title>
<g id="a_n_010"><a xlink:href="./remaining_work.html#test_release" xlink:title="n_010\nTest release\n">
<polygon fill="lightcyan" stroke="black" points="207.5,-530.5 127,-530.5 127,-489.5 207.5,-489.5 207.5,-530.5"/>
<text text-anchor="middle" x="167.25" y="-513.2" font-family="Times,serif" font-size="14.00">n_010</text>
<text text-anchor="middle" x="167.25" y="-496.7" font-family="Times,serif" font-size="14.00">Test release</text>
</a>
</g>
</g>
<!-- scisoft&#45;&gt;test_release -->
<g id="e_020" class="edge">
<title>scisoft&#45;&gt;test_release</title>
<g id="a_e_020"><a xlink:href="./remaining_work.html#e_020" xlink:title="e_020\linstall\l">
<path fill="none" stroke="black" d="M202.59,-819.04C181.18,-789.22 149.85,-739.91 137.25,-691.5 128.79,-658.99 136.02,-590.34 148.25,-548.5 148.97,-546.05 149.84,-543.57 150.82,-541.12"/>
<polygon fill="black" stroke="black" points="153.98,-542.61 154.94,-532.05 147.61,-539.7 153.98,-542.61"/>
</a>
</g>
<g id="a_e_020&#45;label"><a xlink:href="./remaining_work.html#e_020" xlink:title="e_020\linstall\l">
<text text-anchor="start" x="137.25" y="-678.2" font-family="Times,serif" font-size="14.00">e_020</text>
<text text-anchor="start" x="137.25" y="-661.7" font-family="Times,serif" font-size="14.00">install</text>
</a>
</g>
</g>
<!-- scisoft&#45;&gt;CVMFS -->
<g id="e_018" class="edge">
<title>scisoft&#45;&gt;CVMFS</title>
<g id="a_e_018"><a xlink:href="./remaining_work.html#e_018" xlink:title="e_018\linstall\l">
<path fill="none" stroke="black" d="M257.41,-819.11C279.27,-800.56 307.73,-776.41 329.33,-758.09"/>
<polygon fill="black" stroke="black" points="331.32,-760.99 336.68,-751.85 326.79,-755.65 331.32,-760.99"/>
</a>
</g>
<g id="a_e_018&#45;label"><a xlink:href="./remaining_work.html#e_018" xlink:title="e_018\linstall\l">
<text text-anchor="start" x="316.94" y="-788.2" font-family="Times,serif" font-size="14.00">e_018</text>
<text text-anchor="start" x="316.94" y="-771.7" font-family="Times,serif" font-size="14.00">install</text>
</a>
</g>
</g>
<!-- suite_config_server -->
<g id="n_004" class="node">
<title>suite_config_server</title>
<g id="a_n_004"><a xlink:href="./remaining_work.html#suite_config_server" xlink:title="n_004\nSuite configuration\nserver\n">
<polygon fill="pink" stroke="black" points="417.38,-877 297.12,-877 297.12,-819.5 417.38,-819.5 417.38,-877"/>
<text text-anchor="middle" x="357.25" y="-859.7" font-family="Times,serif" font-size="14.00">n_004</text>
<text text-anchor="middle" x="357.25" y="-843.2" font-family="Times,serif" font-size="14.00">Suite configuration</text>
<text text-anchor="middle" x="357.25" y="-826.7" font-family="Times,serif" font-size="14.00">server</text>
</a>
</g>
</g>
<!-- suite_config_server&#45;&gt;base_release -->
<g id="e_022" class="edge">
<title>suite_config_server&#45;&gt;base_release</title>
<g id="a_e_022"><a xlink:href="./remaining_work.html#e_022" xlink:title="e_022\lretrieve\l">
<path fill="none" stroke="black" d="M417.8,-840.37C442.3,-834.27 468.29,-822.85 483.25,-801.5 519.34,-750.01 458.93,-684.28 417.39,-648.04"/>
<polygon fill="black" stroke="black" points="419.89,-645.57 410,-641.75 415.35,-650.9 419.89,-645.57"/>
</a>
</g>
<g id="a_e_022&#45;label"><a xlink:href="./remaining_work.html#e_022" xlink:title="e_022\lretrieve\l">
<text text-anchor="start" x="491.86" y="-733.2" font-family="Times,serif" font-size="14.00">e_022</text>
<text text-anchor="start" x="491.86" y="-716.7" font-family="Times,serif" font-size="14.00">retrieve</text>
</a>
</g>
</g>
<!-- suite_config_server&#45;&gt;test_release -->
<g id="e_023" class="edge">
<title>suite_config_server&#45;&gt;test_release</title>
<g id="a_e_023"><a xlink:href="./remaining_work.html#e_023" xlink:title="e_023\lretrieve\l">
<path fill="none" stroke="black" d="M297.04,-820.44C288.7,-814.99 280.78,-808.69 274.25,-801.5 204.92,-725.17 179.41,-600.09 170.98,-542.2"/>
<polygon fill="black" stroke="black" points="174.46,-541.84 169.64,-532.41 167.53,-542.79 174.46,-541.84"/>
</a>
</g>
<g id="a_e_023&#45;label"><a xlink:href="./remaining_work.html#e_023" xlink:title="e_023\lretrieve\l">
<text text-anchor="start" x="209.17" y="-678.2" font-family="Times,serif" font-size="14.00">e_023</text>
<text text-anchor="start" x="209.17" y="-661.7" font-family="Times,serif" font-size="14.00">retrieve</text>
</a>
</g>
</g>
<!-- suite_config_server&#45;&gt;CVMFS -->
<g id="e_021" class="edge">
<title>suite_config_server&#45;&gt;CVMFS</title>
<g id="a_e_021"><a xlink:href="./remaining_work.html#e_021" xlink:title="e_021\lretrieve\l">
<path fill="none" stroke="black" d="M358.22,-819.11C358.81,-801.97 359.56,-780.03 360.17,-762.33"/>
<polygon fill="black" stroke="black" points="363.67,-762.5 360.51,-752.39 356.67,-762.26 363.67,-762.5"/>
</a>
</g>
<g id="a_e_021&#45;label"><a xlink:href="./remaining_work.html#e_021" xlink:title="e_021\lretrieve\l">
<text text-anchor="start" x="359.96" y="-788.2" font-family="Times,serif" font-size="14.00">e_021</text>
<text text-anchor="start" x="359.96" y="-771.7" font-family="Times,serif" font-size="14.00">retrieve</text>
</a>
</g>
</g>
<!-- built_products&#45;&gt;scisoft -->
<g id="e_004" class="edge">
<title>built_products&#45;&gt;scisoft</title>
<g id="a_e_004"><a xlink:href="./remaining_work.html#e_004" xlink:title="e_004\lupload\l">
<path fill="none" stroke="black" d="M160.92,-1114.89C172.05,-1068.21 200.29,-949.75 215.01,-888.01"/>
<polygon fill="black" stroke="black" points="218.33,-889.18 217.24,-878.65 211.52,-887.56 218.33,-889.18"/>
</a>
</g>
<g id="a_e_004&#45;label"><a xlink:href="./remaining_work.html#e_004" xlink:title="e_004\lupload\l">
<text text-anchor="start" x="186.55" y="-1024.7" font-family="Times,serif" font-size="14.00">e_004</text>
<text text-anchor="start" x="186.55" y="-1008.2" font-family="Times,serif" font-size="14.00">upload</text>
</a>
</g>
</g>
<!-- built_env -->
<g id="n_006" class="node">
<title>built_env</title>
<g id="a_n_006"><a xlink:href="./remaining_work.html#built_env" xlink:title="n_006\nBuilt suites\n">
<polygon fill="khaki" stroke="black" points="304,-987 226.5,-987 226.5,-946 304,-946 304,-987"/>
<text text-anchor="middle" x="265.25" y="-969.7" font-family="Times,serif" font-size="14.00">n_006</text>
<text text-anchor="middle" x="265.25" y="-953.2" font-family="Times,serif" font-size="14.00">Built suites</text>
</a>
</g>
</g>
<!-- built_env&#45;&gt;scisoft -->
<g id="e_011" class="edge">
<title>built_env&#45;&gt;scisoft</title>
<g id="a_e_011"><a xlink:href="./remaining_work.html#e_011" xlink:title="e_011\lupload\l">
<path fill="none" stroke="black" d="M258.2,-945.52C252.63,-929.71 244.67,-907.15 237.86,-887.85"/>
<polygon fill="black" stroke="black" points="241.25,-886.93 234.62,-878.66 234.65,-889.25 241.25,-886.93"/>
</a>
</g>
<g id="a_e_011&#45;label"><a xlink:href="./remaining_work.html#e_011" xlink:title="e_011\lupload\l">
<text text-anchor="start" x="251.99" y="-914.7" font-family="Times,serif" font-size="14.00">e_011</text>
<text text-anchor="start" x="251.99" y="-898.2" font-family="Times,serif" font-size="14.00">upload</text>
</a>
</g>
</g>
<!-- built_env&#45;&gt;suite_config_server -->
<g id="e_012" class="edge">
<title>built_env&#45;&gt;suite_config_server</title>
<g id="a_e_012"><a xlink:href="./remaining_work.html#e_012" xlink:title="e_012\lupload\l">
<path fill="none" stroke="black" d="M281.07,-945.52C293.93,-929.26 312.43,-905.89 327.97,-886.24"/>
<polygon fill="black" stroke="black" points="330.7,-888.43 334.17,-878.42 325.22,-884.09 330.7,-888.43"/>
</a>
</g>
<g id="a_e_012&#45;label"><a xlink:href="./remaining_work.html#e_012" xlink:title="e_012\lupload\l">
<text text-anchor="start" x="319.49" y="-914.7" font-family="Times,serif" font-size="14.00">e_012</text>
<text text-anchor="start" x="319.49" y="-898.2" font-family="Times,serif" font-size="14.00">upload</text>
</a>
</g>
</g>
<!-- packaged_suites -->
<g id="n_007" class="node">
<title>packaged_suites</title>
<g id="a_n_007"><a xlink:href="./remaining_work.html#packaged_suites" xlink:title="n_007\nPackaged suites">
<polygon fill="none" stroke="black" points="316.38,-1097 214.12,-1097 214.12,-1056 316.38,-1056 316.38,-1097"/>
<text text-anchor="middle" x="265.25" y="-1079.7" font-family="Times,serif" font-size="14.00">n_007</text>
<text text-anchor="middle" x="265.25" y="-1063.2" font-family="Times,serif" font-size="14.00">Packaged suites</text>
</a>
</g>
</g>
<!-- packaged_suites&#45;&gt;built_env -->
<g id="e_010" class="edge">
<title>packaged_suites&#45;&gt;built_env</title>
<g id="a_e_010"><a xlink:href="./remaining_work.html#e_010" xlink:title="e_010\lbuild\l">
<path fill="none" stroke="black" d="M265.25,-1055.69C265.25,-1039.71 265.25,-1016.93 265.25,-998.53"/>
<polygon fill="black" stroke="black" points="268.75,-998.7 265.25,-988.7 261.75,-998.7 268.75,-998.7"/>
</a>
</g>
<g id="a_e_010&#45;label"><a xlink:href="./remaining_work.html#e_010" xlink:title="e_010\lbuild\l">
<text text-anchor="start" x="265.25" y="-1024.7" font-family="Times,serif" font-size="14.00">e_010</text>
<text text-anchor="start" x="265.25" y="-1008.2" font-family="Times,serif" font-size="14.00">build</text>
</a>
</g>
</g>
<!-- release_config&#45;&gt;packaged_suites -->
<g id="e_013" class="edge">
<title>release_config&#45;&gt;packaged_suites</title>
<g id="a_e_013"><a xlink:href="./remaining_work.html#e_013" xlink:title="e_013\linstantiate\l">
<path fill="none" stroke="black" d="M265.25,-1173.56C265.25,-1154.25 265.25,-1128.65 265.25,-1108.73"/>
<polygon fill="black" stroke="black" points="268.75,-1108.97 265.25,-1098.97 261.75,-1108.97 268.75,-1108.97"/>
</a>
</g>
<g id="a_e_013&#45;label"><a xlink:href="./remaining_work.html#e_013" xlink:title="e_013\linstantiate\l">
<text text-anchor="start" x="265.25" y="-1138.7" font-family="Times,serif" font-size="14.00">e_013</text>
<text text-anchor="start" x="265.25" y="-1122.2" font-family="Times,serif" font-size="14.00">instantiate</text>
</a>
</g>
</g>
<!-- base_release&#45;&gt;test_release -->
<g id="e_007" class="edge">
<title>base_release&#45;&gt;test_release</title>
<g id="a_e_007"><a xlink:href="./remaining_work.html#e_007" xlink:title="e_007\llayer\l">
<path fill="none" stroke="black" d="M341.06,-614.35C295.13,-608.57 225.4,-597.48 204.25,-581.5 191.07,-571.54 182.13,-555.51 176.34,-541.25"/>
<polygon fill="black" stroke="black" points="179.77,-540.43 173.04,-532.24 173.2,-542.84 179.77,-540.43"/>
</a>
</g>
<g id="a_e_007&#45;label"><a xlink:href="./remaining_work.html#e_007" xlink:title="e_007\llayer\l">
<text text-anchor="start" x="204.25" y="-568.2" font-family="Times,serif" font-size="14.00">e_007</text>
<text text-anchor="start" x="204.25" y="-551.7" font-family="Times,serif" font-size="14.00">layer</text>
</a>
</g>
</g>
<!-- runtime -->
<g id="n_012" class="node">
<title>runtime</title>
<g id="a_n_012"><a xlink:href="./remaining_work.html#runtime" xlink:title="n_012\nRuntime\nenvironment\n">
<polygon fill="palegreen" stroke="black" points="326.75,-420.5 241.75,-420.5 241.75,-363 326.75,-363 326.75,-420.5"/>
<text text-anchor="middle" x="284.25" y="-403.2" font-family="Times,serif" font-size="14.00">n_012</text>
<text text-anchor="middle" x="284.25" y="-386.7" font-family="Times,serif" font-size="14.00">Runtime</text>
<text text-anchor="middle" x="284.25" y="-370.2" font-family="Times,serif" font-size="14.00">environment</text>
</a>
</g>
</g>
<!-- base_release&#45;&gt;runtime -->
<g id="e_006" class="edge">
<title>base_release&#45;&gt;runtime</title>
<g id="a_e_006"><a xlink:href="./remaining_work.html#e_006" xlink:title="e_006\lsetup\l">
<path fill="none" stroke="black" d="M372.5,-599.23C363.02,-581.47 349.05,-554.56 338.25,-530.5 323.44,-497.5 308.58,-459.13 298.21,-431.28"/>
<polygon fill="black" stroke="black" points="301.61,-430.37 294.86,-422.2 295.04,-432.79 301.61,-430.37"/>
</a>
</g>
<g id="a_e_006&#45;label"><a xlink:href="./remaining_work.html#e_006" xlink:title="e_006\lsetup\l">
<text text-anchor="start" x="338.25" y="-513.2" font-family="Times,serif" font-size="14.00">e_006</text>
<text text-anchor="start" x="338.25" y="-496.7" font-family="Times,serif" font-size="14.00">setup</text>
</a>
</g>
</g>
<!-- grid -->
<g id="n_013" class="node">
<title>grid</title>
<g id="a_n_013"><a xlink:href="./remaining_work.html#grid" xlink:title="n_013\nGrid\nenvironment\n">
<polygon fill="palegreen" stroke="black" points="405.75,-167.5 320.75,-167.5 320.75,-110 405.75,-110 405.75,-167.5"/>
<text text-anchor="middle" x="363.25" y="-150.2" font-family="Times,serif" font-size="14.00">n_013</text>
<text text-anchor="middle" x="363.25" y="-133.7" font-family="Times,serif" font-size="14.00">Grid</text>
<text text-anchor="middle" x="363.25" y="-117.2" font-family="Times,serif" font-size="14.00">environment</text>
</a>
</g>
</g>
<!-- base_release&#45;&gt;grid -->
<g id="e_005" class="edge">
<title>base_release&#45;&gt;grid</title>
<g id="a_e_005"><a xlink:href="./remaining_work.html#e_005" xlink:title="e_005\lrelocate\l">
<path fill="none" stroke="black" d="M398.12,-599.2C401.62,-593.71 404.98,-587.58 407.25,-581.5 424.51,-535.21 419.69,-520.77 423.25,-471.5 430.84,-366.54 417.87,-339.05 394.25,-236.5 389.76,-217 383.16,-195.78 377.2,-178.2"/>
<polygon fill="black" stroke="black" points="380.67,-177.51 374.1,-169.2 374.05,-179.79 380.67,-177.51"/>
</a>
</g>
<g id="a_e_005&#45;label"><a xlink:href="./remaining_work.html#e_005" xlink:title="e_005\lrelocate\l">
<text text-anchor="start" x="425.42" y="-394.95" font-family="Times,serif" font-size="14.00">e_005</text>
<text text-anchor="start" x="425.42" y="-378.45" font-family="Times,serif" font-size="14.00">relocate</text>
</a>
</g>
</g>
<!-- test_release&#45;&gt;runtime -->
<g id="e_025" class="edge">
<title>test_release&#45;&gt;runtime</title>
<g id="a_e_025"><a xlink:href="./remaining_work.html#e_025" xlink:title="e_025\lsetup\l">
<path fill="none" stroke="black" d="M177.88,-489.24C186.6,-474.2 199.98,-453.59 215.25,-438.5 220.47,-433.34 226.36,-428.42 232.43,-423.85"/>
<polygon fill="black" stroke="black" points="234.09,-426.96 240.18,-418.29 230.01,-421.28 234.09,-426.96"/>
</a>
</g>
<g id="a_e_025&#45;label"><a xlink:href="./remaining_work.html#e_025" xlink:title="e_025\lsetup\l">
<text text-anchor="start" x="215.25" y="-458.2" font-family="Times,serif" font-size="14.00">e_025</text>
<text text-anchor="start" x="215.25" y="-441.7" font-family="Times,serif" font-size="14.00">setup</text>
</a>
</g>
</g>
<!-- test_release&#45;&gt;grid -->
<g id="e_024" class="edge">
<title>test_release&#45;&gt;grid</title>
<g id="a_e_024"><a xlink:href="./remaining_work.html#e_024" xlink:title="e_024\lrelocate\l">
<path fill="none" stroke="black" d="M155.95,-489.22C130.28,-441.4 73.82,-317.54 127.25,-236.5 167.27,-175.8 253.04,-153.17 309.4,-144.74"/>
<polygon fill="black" stroke="black" points="309.68,-148.23 319.11,-143.39 308.72,-141.3 309.68,-148.23"/>
</a>
</g>
<g id="a_e_024&#45;label"><a xlink:href="./remaining_work.html#e_024" xlink:title="e_024\lrelocate\l">
<text text-anchor="start" x="106.47" y="-331.7" font-family="Times,serif" font-size="14.00">e_024</text>
<text text-anchor="start" x="106.47" y="-315.2" font-family="Times,serif" font-size="14.00">relocate</text>
</a>
</g>
</g>
<!-- CVMFS&#45;&gt;base_release -->
<g id="e_002" class="edge">
<title>CVMFS&#45;&gt;base_release</title>
<g id="a_e_002"><a xlink:href="./remaining_work.html#e_002" xlink:title="e_002\llayer\l">
<path fill="none" stroke="black" d="M365.29,-709.19C368.56,-693.13 373.23,-670.21 376.98,-651.77"/>
<polygon fill="black" stroke="black" points="380.37,-652.66 378.94,-642.17 373.51,-651.27 380.37,-652.66"/>
</a>
</g>
<g id="a_e_002&#45;label"><a xlink:href="./remaining_work.html#e_002" xlink:title="e_002\llayer\l">
<text text-anchor="start" x="375.51" y="-678.2" font-family="Times,serif" font-size="14.00">e_002</text>
<text text-anchor="start" x="375.51" y="-661.7" font-family="Times,serif" font-size="14.00">layer</text>
</a>
</g>
</g>
<!-- CVMFS&#45;&gt;CVMFS -->
<g id="e_003" class="edge">
<title>CVMFS&#45;&gt;CVMFS</title>
<g id="a_e_003"><a xlink:href="./remaining_work.html#e_003" xlink:title="e_003\lpublish\l">
<path fill="none" stroke="black" d="M392.77,-740.21C406.12,-740.98 417.5,-737.57 417.5,-730 417.5,-724.73 412,-721.49 404.16,-720.25"/>
<polygon fill="black" stroke="black" points="404.42,-716.76 394.28,-719.85 404.13,-723.75 404.42,-716.76"/>
</a>
</g>
<g id="a_e_003&#45;label"><a xlink:href="./remaining_work.html#e_003" xlink:title="e_003\lpublish\l">
<text text-anchor="start" x="417.5" y="-733.2" font-family="Times,serif" font-size="14.00">e_003</text>
<text text-anchor="start" x="417.5" y="-716.7" font-family="Times,serif" font-size="14.00">publish</text>
</a>
</g>
</g>
<!-- CVMFS&#45;&gt;runtime -->
<g id="e_001" class="edge">
<title>CVMFS&#45;&gt;runtime</title>
<g id="a_e_001"><a xlink:href="./remaining_work.html#e_001" xlink:title="e_001\lsetup\l">
<path fill="none" stroke="black" d="M354.1,-709.33C347.6,-691.4 337.75,-664.18 329.25,-640.5 319.85,-614.3 314.71,-608.57 308.25,-581.5 296.15,-530.8 289.85,-470.88 286.8,-432.38"/>
<polygon fill="black" stroke="black" points="290.29,-432.13 286.04,-422.42 283.31,-432.66 290.29,-432.13"/>
</a>
</g>
<g id="a_e_001&#45;label"><a xlink:href="./remaining_work.html#e_001" xlink:title="e_001\lsetup\l">
<text text-anchor="start" x="308.25" y="-568.2" font-family="Times,serif" font-size="14.00">e_001</text>
<text text-anchor="start" x="308.25" y="-551.7" font-family="Times,serif" font-size="14.00">setup</text>
</a>
</g>
</g>
<!-- CVMFS&#45;&gt;grid -->
<g id="e_000" class="edge">
<title>CVMFS&#45;&gt;grid</title>
<g id="a_e_000"><a xlink:href="./remaining_work.html#e_000" xlink:title="e_000\lsetup\l">
<path fill="none" stroke="black" d="M393,-710.66C400.64,-705.2 408.3,-698.72 414.25,-691.5 430.06,-672.31 430.02,-664.29 437.25,-640.5 473.44,-521.46 497.78,-485.18 474.25,-363 458.18,-279.57 447.62,-257.96 403.25,-185.5 401.44,-182.54 399.43,-179.58 397.3,-176.67"/>
<polygon fill="black" stroke="black" points="400.07,-174.54 391.15,-168.82 394.56,-178.85 400.07,-174.54"/>
</a>
</g>
<g id="a_e_000&#45;label"><a xlink:href="./remaining_work.html#e_000" xlink:title="e_000\lsetup\l">
<text text-anchor="start" x="483.55" y="-458.2" font-family="Times,serif" font-size="14.00">e_000</text>
<text text-anchor="start" x="483.55" y="-441.7" font-family="Times,serif" font-size="14.00">setup</text>
</a>
</g>
</g>
<!-- runtime&#45;&gt;grid -->
<g id="e_027" class="edge">
<title>runtime&#45;&gt;grid</title>
<g id="a_e_027"><a xlink:href="./remaining_work.html#e_027" xlink:title="e_027\lsubmit\l">
<path fill="none" stroke="black" d="M308.72,-362.71C312.71,-357.12 316.44,-351.08 319.25,-345 344.29,-290.7 355.31,-221.69 359.99,-179.14"/>
<polygon fill="black" stroke="black" points="363.45,-179.68 361,-169.37 356.49,-178.96 363.45,-179.68"/>
</a>
</g>
<g id="a_e_027&#45;label"><a xlink:href="./remaining_work.html#e_027" xlink:title="e_027\lsubmit\l">
<text text-anchor="start" x="351.06" y="-268.45" font-family="Times,serif" font-size="14.00">e_027</text>
<text text-anchor="start" x="351.06" y="-251.95" font-family="Times,serif" font-size="14.00">submit</text>
</a>
</g>
</g>
<!-- development -->
<g id="n_014" class="node">
<title>development</title>
<g id="a_n_014"><a xlink:href="./remaining_work.html#development" xlink:title="n_014\nDevelopment\nenvironment\n">
<polygon fill="palegreen" stroke="black" points="229,-294 139.5,-294 139.5,-236.5 229,-236.5 229,-294"/>
<text text-anchor="middle" x="184.25" y="-276.7" font-family="Times,serif" font-size="14.00">n_014</text>
<text text-anchor="middle" x="184.25" y="-260.2" font-family="Times,serif" font-size="14.00">Development</text>
<text text-anchor="middle" x="184.25" y="-243.7" font-family="Times,serif" font-size="14.00">environment</text>
</a>
</g>
</g>
<!-- runtime&#45;&gt;development -->
<g id="e_026" class="edge">
<title>runtime&#45;&gt;development</title>
<g id="a_e_026"><a xlink:href="./remaining_work.html#e_026" xlink:title="e_026\lsetup&#45;for&#45;dev\l">
<path fill="none" stroke="black" d="M256.29,-362.77C250.9,-357.03 245.41,-350.93 240.5,-345 229.72,-331.98 218.73,-317.04 209.35,-303.69"/>
<polygon fill="black" stroke="black" points="212.28,-301.77 203.7,-295.55 206.53,-305.76 212.28,-301.77"/>
</a>
</g>
<g id="a_e_026&#45;label"><a xlink:href="./remaining_work.html#e_026" xlink:title="e_026\lsetup&#45;for&#45;dev\l">
<text text-anchor="start" x="240.5" y="-331.7" font-family="Times,serif" font-size="14.00">e_026</text>
<text text-anchor="start" x="240.5" y="-315.2" font-family="Times,serif" font-size="14.00">setup&#45;for&#45;dev</text>
</a>
</g>
</g>
<!-- development&#45;&gt;packaged_products -->
<g id="e_035" class="edge">
<title>development&#45;&gt;packaged_products</title>
<g id="a_e_035"><a xlink:href="./remaining_work.html#e_035" xlink:title="e_035\lpackage\l">
<path fill="none" stroke="black" d="M166.78,-294.35C134.61,-346.15 69.25,-451.69 69.25,-454 69.25,-1203.75 69.25,-1203.75 69.25,-1203.75 69.25,-1239.52 95.9,-1271.49 119.53,-1292.81"/>
<polygon fill="black" stroke="black" points="117.04,-1295.28 126.89,-1299.17 121.62,-1289.99 117.04,-1295.28"/>
</a>
</g>
<g id="a_e_035&#45;label"><a xlink:href="./remaining_work.html#e_035" xlink:title="e_035\lpackage\l">
<text text-anchor="start" x="69.25" y="-788.2" font-family="Times,serif" font-size="14.00">e_035</text>
<text text-anchor="start" x="69.25" y="-771.7" font-family="Times,serif" font-size="14.00">package</text>
</a>
</g>
</g>
<!-- development&#45;&gt;base_release -->
<g id="e_033" class="edge">
<title>development&#45;&gt;base_release</title>
<g id="a_e_033"><a xlink:href="./remaining_work.html#e_033" xlink:title="e_033\linstall\l">
<path fill="none" stroke="black" d="M229.43,-272.93C257.02,-279.04 291.45,-290.55 315.25,-312 394.68,-383.58 392.37,-525.35 386.9,-588"/>
<polygon fill="black" stroke="black" points="383.46,-587.29 385.97,-597.58 390.42,-587.96 383.46,-587.29"/>
</a>
</g>
<g id="a_e_033&#45;label"><a xlink:href="./remaining_work.html#e_033" xlink:title="e_033\linstall\l">
<text text-anchor="start" x="385.32" y="-458.2" font-family="Times,serif" font-size="14.00">e_033</text>
<text text-anchor="start" x="385.32" y="-441.7" font-family="Times,serif" font-size="14.00">install</text>
</a>
</g>
</g>
<!-- development&#45;&gt;test_release -->
<g id="e_036" class="edge">
<title>development&#45;&gt;test_release</title>
<g id="a_e_036"><a xlink:href="./remaining_work.html#e_036" xlink:title="e_036\linstall\l">
<path fill="none" stroke="black" d="M182.27,-294.47C179.07,-340.19 172.77,-430.12 169.44,-477.72"/>
<polygon fill="black" stroke="black" points="165.95,-477.4 168.75,-487.62 172.94,-477.89 165.95,-477.4"/>
</a>
</g>
<g id="a_e_036&#45;label"><a xlink:href="./remaining_work.html#e_036" xlink:title="e_036\linstall\l">
<text text-anchor="start" x="177.44" y="-394.95" font-family="Times,serif" font-size="14.00">e_036</text>
<text text-anchor="start" x="177.44" y="-378.45" font-family="Times,serif" font-size="14.00">install</text>
</a>
</g>
</g>
<!-- development&#45;&gt;grid -->
<g id="e_034" class="edge">
<title>development&#45;&gt;grid</title>
<g id="a_e_034"><a xlink:href="./remaining_work.html#e_034" xlink:title="e_034\luse\l">
<path fill="none" stroke="black" d="M224.42,-236.31C250.81,-217.95 285.53,-193.81 313.64,-174.25"/>
<polygon fill="black" stroke="black" points="315.45,-177.26 321.66,-168.68 311.45,-171.51 315.45,-177.26"/>
</a>
</g>
<g id="a_e_034&#45;label"><a xlink:href="./remaining_work.html#e_034" xlink:title="e_034\luse\l">
<text text-anchor="start" x="295.05" y="-205.2" font-family="Times,serif" font-size="14.00">e_034</text>
<text text-anchor="start" x="295.05" y="-188.7" font-family="Times,serif" font-size="14.00">use</text>
</a>
</g>
</g>
<!-- development&#45;&gt;development -->
<g id="e_028" class="edge">
<title>development&#45;&gt;development</title>
<g id="a_e_028"><a xlink:href="./remaining_work.html#e_028" xlink:title="e_028\lbuild/tweak\l">
<path fill="none" stroke="black" d="M229.2,-277.1C243.09,-276.86 254,-272.91 254,-265.25 254,-259.86 248.61,-256.31 240.57,-254.6"/>
<polygon fill="black" stroke="black" points="241.01,-251.12 230.7,-253.56 240.28,-258.08 241.01,-251.12"/>
</a>
</g>
<g id="a_e_028&#45;label"><a xlink:href="./remaining_work.html#e_028" xlink:title="e_028\lbuild/tweak\l">
<text text-anchor="start" x="254" y="-268.45" font-family="Times,serif" font-size="14.00">e_028</text>
<text text-anchor="start" x="254" y="-251.95" font-family="Times,serif" font-size="14.00">build/tweak</text>
</a>
</g>
</g>
<!-- PR -->
<g id="n_015" class="node">
<title>PR</title>
<g id="a_n_015"><a xlink:href="./remaining_work.html#PR" xlink:title="n_015\nPull request\n">
<polygon fill="lightgray" stroke="black" points="80.5,-159.25 0,-159.25 0,-118.25 80.5,-118.25 80.5,-159.25"/>
<text text-anchor="middle" x="40.25" y="-141.95" font-family="Times,serif" font-size="14.00">n_015</text>
<text text-anchor="middle" x="40.25" y="-125.45" font-family="Times,serif" font-size="14.00">Pull request</text>
</a>
</g>
</g>
<!-- development&#45;&gt;PR -->
<g id="e_029" class="edge">
<title>development&#45;&gt;PR</title>
<g id="a_e_029"><a xlink:href="./remaining_work.html#e_029" xlink:title="e_029\lcreate\l">
<path fill="none" stroke="black" d="M151.93,-236.31C127.96,-215.59 95.46,-187.48 71.7,-166.94"/>
<polygon fill="black" stroke="black" points="74.05,-164.35 64.2,-160.46 69.48,-169.65 74.05,-164.35"/>
</a>
</g>
<g id="a_e_029&#45;label"><a xlink:href="./remaining_work.html#e_029" xlink:title="e_029\lcreate\l">
<text text-anchor="start" x="129.38" y="-205.2" font-family="Times,serif" font-size="14.00">e_029</text>
<text text-anchor="start" x="129.38" y="-188.7" font-family="Times,serif" font-size="14.00">create</text>
</a>
</g>
</g>
<!-- CI -->
<g id="n_016" class="node">
<title>CI</title>
<g id="a_n_016"><a xlink:href="./remaining_work.html#CI" xlink:title="n_016\nCI\n">
<polygon fill="palegreen" stroke="black" points="67.25,-41 13.25,-41 13.25,0 67.25,0 67.25,-41"/>
<text text-anchor="middle" x="40.25" y="-23.7" font-family="Times,serif" font-size="14.00">n_016</text>
<text text-anchor="middle" x="40.25" y="-7.2" font-family="Times,serif" font-size="14.00">CI</text>
</a>
</g>
</g>
<!-- PR&#45;&gt;CI -->
<g id="e_030" class="edge">
<title>PR&#45;&gt;CI</title>
<g id="a_e_030"><a xlink:href="./remaining_work.html#e_030" xlink:title="e_030\ltrigger\l">
<path fill="none" stroke="black" d="M21.22,-117.95C15.23,-110.43 9.36,-101.39 6.25,-92 1.64,-78.08 0.97,-72.68 6.25,-59 7.37,-56.1 8.83,-53.29 10.51,-50.59"/>
<polygon fill="black" stroke="black" points="13.29,-52.72 16.47,-42.61 7.68,-48.53 13.29,-52.72"/>
</a>
</g>
<g id="a_e_030&#45;label"><a xlink:href="./remaining_work.html#e_030" xlink:title="e_030\ltrigger\l">
<text text-anchor="start" x="6.25" y="-78.7" font-family="Times,serif" font-size="14.00">e_030</text>
<text text-anchor="start" x="6.25" y="-62.2" font-family="Times,serif" font-size="14.00">trigger</text>
</a>
</g>
</g>
<!-- CI&#45;&gt;PR -->
<g id="e_032" class="edge">
<title>CI&#45;&gt;PR</title>
<g id="a_e_032"><a xlink:href="./remaining_work.html#e_032" xlink:title="e_032\lreport\l">
<path fill="none" stroke="black" d="M42.76,-41.32C43.38,-47.02 43.94,-53.25 44.25,-59 45.03,-73.65 44.89,-77.35 44.25,-92 44.04,-96.84 43.7,-101.96 43.31,-106.95"/>
<polygon fill="black" stroke="black" points="39.85,-106.41 42.47,-116.68 46.82,-107.02 39.85,-106.41"/>
</a>
</g>
<g id="a_e_032&#45;label"><a xlink:href="./remaining_work.html#e_032" xlink:title="e_032\lreport\l">
<text text-anchor="start" x="44.78" y="-78.7" font-family="Times,serif" font-size="14.00">e_032</text>
<text text-anchor="start" x="44.78" y="-62.2" font-family="Times,serif" font-size="14.00">report</text>
</a>
</g>
</g>
<!-- CI&#45;&gt;CI -->
<g id="e_031" class="edge">
<title>CI&#45;&gt;CI</title>
<g id="a_e_031"><a xlink:href="./remaining_work.html#e_031" xlink:title="e_031\lprocess\l">
<path fill="none" stroke="black" d="M67.54,-30.56C80.66,-31.8 92.25,-28.45 92.25,-20.5 92.25,-14.97 86.65,-11.67 78.82,-10.58"/>
<polygon fill="black" stroke="black" points="79.1,-7.09 69.05,-10.46 79.01,-14.09 79.1,-7.09"/>
</a>
</g>
<g id="a_e_031&#45;label"><a xlink:href="./remaining_work.html#e_031" xlink:title="e_031\lprocess\l">
<text text-anchor="start" x="92.25" y="-23.7" font-family="Times,serif" font-size="14.00">e_031</text>
<text text-anchor="start" x="92.25" y="-7.2" font-family="Times,serif" font-size="14.00">process</text>
</a>
</g>
</g>
</g>
</svg>
